<?xml version="1.0" encoding="utf-8"?>
<!-- Generator: Adobe Illustrator 27.5.0, SVG Export Plug-In . SVG Version: 6.00 Build 0)  -->
<svg version="1.1" id="Layer_1" xmlns="http://www.w3.org/2000/svg" xmlns:xlink="http://www.w3.org/1999/xlink" x="0px" y="0px"
	 viewBox="0 0 42.5 40.5" style="enable-background:new 0 0 42.5 40.5;" xml:space="preserve">
<style type="text/css">
	.st0{fill:#FDDD68;}
	.st1{fill:#FCDC6D;}
</style>
<g id="logo-logo">
	<g>
		<polygon class="st0" points="16.8,30 13,30 17.1,23 24.6,23 28.7,30 24.9,30 22.7,26.3 19,26.3 		"/>
		<path class="st1" d="M4.8,16.4c0.2,0,0.4,0,0.7,0L14.9,0l10.9,0l0,3.3l-9,0L8.3,18c0.6,0.8,1,1.7,1,2.8c0,2.5-2,4.5-4.5,4.5
			s-4.5-2-4.5-4.5S2.3,16.4,4.8,16.4z M4.8,22C5.5,22,6,21.5,6,20.8c0-0.6-0.5-1.2-1.2-1.2c-0.7,0-1.2,0.5-1.2,1.2S4.2,22,4.8,22z"
			/>
		<path class="st1" d="M0,28.2L2.4,26l8,8.5l9.8,0c0.7-1.7,2.3-2.8,4.1-2.8c2.5,0,4.5,2,4.5,4.5s-2,4.5-4.5,4.5
			c-1.9,0-3.5-1.2-4.2-2.8L9,37.7L0,28.2z M24.4,37.3c0.6,0,1.2-0.5,1.2-1.2c0-0.7-0.5-1.2-1.2-1.2s-1.2,0.5-1.2,1.2
			C23.2,36.7,23.7,37.3,24.4,37.3z"/>
		<polygon class="st1" points="19.4,7.7 22.3,7.7 33,26.2 29.4,30 24.9,30 28.9,25.7 20.8,11.8 12.8,25.7 16.8,30 12.3,30 8.7,26.2
					"/>
		<path class="st1" d="M29.3,3.2c2.5,0,4.5,2,4.5,4.5c0,1-0.4,2-1,2.8l9.7,16.8l-9.3,9.9L30.8,35l7.6-8.1L30,12.1
			c-0.2,0-0.4,0.1-0.6,0.1c-2.5,0-4.5-2-4.5-4.5C24.8,5.2,26.8,3.2,29.3,3.2z M29.3,8.9c0.6,0,1.2-0.5,1.2-1.2
			c0-0.7-0.5-1.2-1.2-1.2c-0.6,0-1.2,0.5-1.2,1.2C28.1,8.3,28.7,8.9,29.3,8.9z"/>
	</g>
</g>
</svg>
